# xmcd
#
# Track frame offsets:
#	150
#	37819
#	59345
#	78310
#	103041
#	117610
#	131825
#
# Disc length: 2332 seconds
#
# Revision: 0
# Processed by: cddbd v1.5.2PL0 Copyright (c) Steve Scherf et al.
# Submitted via: EasyCDDAExtractor 10.0.2.1
#
DISCID=5b091a07
DTITLE=Nico - Live Heroes
DYEAR=1986
DGENRE=Blues
TTITLE0=Heroes
TTITLE1=Procession
TTITLE2=My Funny Valentine
TTITLE3=All Tomorrow's Parties
TTITLE4=Valley Of The Kings
TTITLE5=Femme Fatale
TTITLE6=The End
EXTD=
EXTT0=
EXTT1=
EXTT2=
EXTT3=
EXTT4=
EXTT5=
EXTT6=
PLAYORDER=
